<svg t="1769685672106" class="icon" viewBox="0 0 1024 1024" version="1.1"
    xmlns="http://www.w3.org/2000/svg" p-id="4899" width="256" height="256"
    xmlns:xlink="http://www.w3.org/1999/xlink">
    <path
        d="M946.9 377.5c-1.6-5.1-6.3-8.6-11.7-8.5l-358.4 5.3 338.7-289c3.8-3.3 5.2-8.6 3.5-13.3-1.7-4.8-6.3-7.9-11.3-7.9H454.2c-3.8 0-7.3 1.8-9.6 4.8L78.9 556.6c-2.7 3.7-3.2 8.6-1.1 12.7s6.3 6.6 10.9 6.5l228.7-3.7L79.3 941.3c-3.1 4.8-2.4 11.1 1.7 15.1 4 4 10.4 4.5 15.1 1.4l846-566.7c4.4-3 6.4-8.5 4.8-13.6zM219.8 815.7L399 538.9c2.4-3.7 2.6-8.4 0.4-12.4-2.1-3.9-6.3-6.3-10.7-6.2 0 0-221.6 3.6-222.1 3.6-0.1-0.1-0.1-0.1-0.1-0.2 0.3-0.5 306.9-409.1 306.9-409.1h329.9L462.8 405.3c-3.9 3.3-5.2 8.6-3.5 13.4 1.8 4.7 6.4 7.8 11.4 7.7l335.7-4.9-586.6 394.2z"
        fill="#2c2c2c" p-id="4900"></path>
</svg>